<svg width="875" height="798" viewBox="0 0 875 798" fill="none" xmlns="http://www.w3.org/2000/svg">
<g clip-path="url(#clip0_7472_776)">
<path d="M111.292 26.6999L306.586 103.071C345.061 91.2153 388.474 84.8685 437.487 85.8141C486.498 84.8685 529.914 91.2153 568.386 103.071L763.68 26.6999C803.661 19.5299 838.669 53.2228 831.217 91.708L803.579 281.073C837.197 361.03 848.473 441.713 848.473 490.523C848.473 615.915 793.617 772.256 437.487 772.256C81.3552 772.256 26.4989 615.915 26.4989 490.523C26.4989 441.713 37.7754 361.03 71.3931 281.073L43.7556 91.708C36.3065 53.2228 71.3109 19.5299 111.292 26.6999Z" fill="#F9A535"/>
<path fill-rule="evenodd" clip-rule="evenodd" d="M118.461 1.82616L115.931 1.37245C59.3272 -8.77856 7.4884 38.8413 18.0887 95.9212L44.6369 277.822C11.7172 358.965 0.487305 439.979 0.487305 490.525C0.487305 556.641 14.9614 635.419 80.526 697.075C145.64 758.307 256.251 798 437.488 798C618.723 798 729.333 758.307 794.447 697.075C860.011 635.419 874.486 556.641 874.486 490.525C874.486 439.979 863.256 358.965 830.336 277.822L856.884 95.9228C867.489 38.8393 815.643 -8.7781 759.042 1.37245L756.512 1.82616L567.194 75.8602C528.319 64.8883 485.216 59.1944 437.488 60.0694C389.756 59.1944 346.656 64.8885 307.779 75.8603L118.461 1.82616ZM306.586 103.073C345.061 91.2175 388.474 84.8707 437.488 85.8163C486.499 84.8707 529.915 91.2175 568.387 103.073L763.68 26.7022C803.662 19.5321 838.669 53.225 831.217 91.7103L803.579 281.075C837.197 361.033 848.474 441.715 848.474 490.525C848.474 615.918 793.617 772.258 437.488 772.258C81.3555 772.258 26.4992 615.918 26.4992 490.525C26.4992 441.715 37.7757 361.033 71.3935 281.075L43.7559 91.7103C36.3068 53.225 71.3112 19.5321 111.293 26.7022L306.586 103.073Z" fill="#844E1D"/>
<path d="M437.487 743.942C609.878 743.942 749.629 696.472 749.629 584.157C749.629 471.841 627.946 337.215 437.487 337.215C247.027 337.215 125.344 471.841 125.344 584.157C125.344 696.472 265.095 743.942 437.487 743.942Z" fill="#FEFEFE"/>
<path d="M486.91 296.024V378.399C486.91 401.146 505.544 419.586 528.529 419.586C551.515 419.586 570.148 401.146 570.148 378.399V296.024C570.148 273.276 551.515 254.836 528.529 254.836C505.544 254.836 486.91 273.276 486.91 296.024Z" fill="#844E1D"/>
<path d="M304.826 296.024V378.399C304.826 401.146 323.46 419.586 346.445 419.586C369.431 419.586 388.064 401.146 388.064 378.399V296.024C388.064 273.276 369.431 254.836 346.445 254.836C323.46 254.836 304.826 273.276 304.826 296.024Z" fill="#844E1D"/>
<path fill-rule="evenodd" clip-rule="evenodd" d="M449.192 456.601C462.1 452.947 471.304 443.545 471.304 433.495C471.304 420.604 456.165 417.02 437.489 417.02C418.813 417.02 403.674 420.604 403.674 433.495C403.674 443.545 412.878 452.947 425.786 456.601V476.225C425.786 494.707 410.649 509.69 391.977 509.69C381.79 509.69 372.656 505.23 366.457 498.176C362.768 493.977 355.881 492.506 351.934 496.462L350.113 498.288C345.918 502.492 345.035 509.144 348.978 513.586C359.464 525.401 374.841 532.858 391.977 532.858C410.539 532.858 427.036 524.109 437.489 510.55C447.942 524.109 464.439 532.858 483.001 532.858C500.137 532.858 515.514 525.401 526 513.587C529.943 509.144 529.06 502.493 524.865 498.288L523.044 496.463C519.097 492.506 512.21 493.977 508.521 498.176C502.322 505.231 493.188 509.69 483.001 509.69C464.329 509.69 449.192 494.707 449.192 476.225V456.601Z" fill="#844E1D"/>
</g>
<defs>
<clipPath id="clip0_7472_776">
<rect width="874" height="798" fill="white" transform="translate(0.488281)"/>
</clipPath>
</defs>
</svg>
